<svg width="71" height="40" viewBox="0 0 71 40" fill="none" xmlns="http://www.w3.org/2000/svg">
<path d="M14 27.6755C17.8755 20.1502 24.427 7.96164 28.4871 10.5276C33.5622 13.7352 21.1052 23.6044 27.103 27.6755C33.1009 31.7466 38.6373 6.82664 44.0815 10.5276C49.5258 14.2286 38.8219 23.9745 43.0665 27.6755C46.4622 30.6363 52.294 20.2394 57 12.2617" stroke="#6500C3" stroke-width="15.8161" stroke-linecap="round"/>
<path d="M34.9417 14.0176C35.6752 14.0176 36.3933 14.5094 36.9446 15.4189C37.4923 16.3227 37.8411 17.5927 37.8411 19.0117C37.841 20.4306 37.4923 21.6998 36.9446 22.6035C36.3933 23.5131 35.6753 24.0049 34.9417 24.0049C34.208 24.0048 33.49 23.5131 32.9387 22.6035C32.391 21.6998 32.0423 20.4306 32.0422 19.0117C32.0422 17.5927 32.391 16.3227 32.9387 15.4189C33.49 14.5094 34.2081 14.0176 34.9417 14.0176Z" fill="white" stroke="#0F172A" stroke-width="0.64436"/>
<path d="M36.0688 15.9507C36.4944 15.9507 36.9302 16.2303 37.2759 16.7886C37.6185 17.3421 37.8413 18.1273 37.8413 19.0112C37.8413 19.8952 37.6185 20.6803 37.2759 21.2339C36.9302 21.7923 36.4944 22.0718 36.0688 22.0718C35.6434 22.0716 35.2084 21.792 34.8628 21.2339C34.5201 20.6803 34.2974 19.8952 34.2974 19.0112C34.2974 18.1273 34.5201 17.3421 34.8628 16.7886C35.2084 16.2305 35.6435 15.9509 36.0688 15.9507Z" fill="#0F172A" stroke="#0F172A" stroke-width="0.64436"/>
<path d="M43.3184 14.0176C44.052 14.0176 44.77 14.5094 45.3213 15.4189C45.869 16.3227 46.2178 17.5927 46.2178 19.0117C46.2177 20.4306 45.869 21.6998 45.3213 22.6035C44.77 23.5131 44.052 24.0049 43.3184 24.0049C42.5848 24.0048 41.8667 23.5131 41.3154 22.6035C40.7677 21.6998 40.419 20.4306 40.4189 19.0117C40.4189 17.5927 40.7677 16.3227 41.3154 15.4189C41.8667 14.5094 42.5848 14.0176 43.3184 14.0176Z" fill="white" stroke="#0F172A" stroke-width="0.64436"/>
<path d="M44.4456 15.9507C44.8711 15.9507 45.3069 16.2303 45.6526 16.7886C45.9952 17.3421 46.218 18.1273 46.218 19.0112C46.218 19.8952 45.9953 20.6803 45.6526 21.2339C45.3069 21.7923 44.8711 22.0718 44.4456 22.0718C44.0201 22.0716 43.5851 21.792 43.2395 21.2339C42.8968 20.6803 42.6741 19.8952 42.6741 19.0112C42.6741 18.1273 42.8968 17.3421 43.2395 16.7886C43.5851 16.2305 44.0202 15.9509 44.4456 15.9507Z" fill="#0F172A" stroke="#0F172A" stroke-width="0.64436"/>
</svg>
