<svg width="16" height="16" viewBox="0 0 16 16" fill="none" xmlns="http://www.w3.org/2000/svg">
<path d="M3 10.0754C3.90129 8.3253 5.42489 5.49076 6.3691 6.08751C7.54936 6.83344 4.65236 9.12861 6.04721 10.0754C7.44206 11.0221 8.72961 5.22681 9.99571 6.0875C11.2618 6.9482 8.77253 9.21468 9.75966 10.0754C10.5494 10.7639 11.9056 8.34606 13 6.49079" stroke="#6500C3" stroke-width="3.67816" stroke-linecap="round"/>
<path d="M7.86987 6.89941C8.04049 6.89941 8.20748 7.01403 8.33569 7.22559C8.46298 7.43575 8.54468 7.73067 8.54468 8.06055C8.54467 8.39044 8.46301 8.68535 8.33569 8.89551C8.20748 9.10706 8.04049 9.22168 7.86987 9.22168C7.69934 9.22158 7.53221 9.10697 7.40405 8.89551C7.27681 8.68537 7.19605 8.39033 7.19604 8.06055C7.19604 7.73078 7.27683 7.43573 7.40405 7.22559C7.53221 7.01413 7.69934 6.89952 7.86987 6.89941Z" fill="white" stroke="#0F172A" stroke-width="0.149851"/>
<path d="M8.13257 7.34888C8.23138 7.349 8.33255 7.41365 8.41284 7.54321C8.49253 7.67194 8.54468 7.85521 8.54468 8.06079C8.54461 8.26621 8.49248 8.44874 8.41284 8.57739C8.33253 8.70705 8.23142 8.7716 8.13257 8.77173C8.03359 8.77173 7.93172 8.70727 7.85132 8.57739C7.77169 8.44875 7.72052 8.2662 7.72046 8.06079C7.72046 7.85521 7.77163 7.67194 7.85132 7.54321C7.93171 7.4134 8.03361 7.34888 8.13257 7.34888Z" fill="#0F172A" stroke="#0F172A" stroke-width="0.149851"/>
<path d="M9.81812 6.89941C9.98873 6.89941 10.1557 7.01403 10.2839 7.22559C10.4112 7.43575 10.4929 7.73067 10.4929 8.06055C10.4929 8.39044 10.4112 8.68535 10.2839 8.89551C10.1557 9.10706 9.98873 9.22168 9.81812 9.22168C9.64758 9.22158 9.48045 9.10697 9.35229 8.89551C9.22505 8.68537 9.1443 8.39033 9.14429 8.06055C9.14429 7.73078 9.22508 7.43573 9.35229 7.22559C9.48045 7.01413 9.64758 6.89952 9.81812 6.89941Z" fill="white" stroke="#0F172A" stroke-width="0.149851"/>
<path d="M10.0808 7.34888C10.1796 7.349 10.2808 7.41365 10.3611 7.54321C10.4408 7.67194 10.4929 7.85521 10.4929 8.06079C10.4929 8.26621 10.4407 8.44874 10.3611 8.57739C10.2808 8.70705 10.1797 8.7716 10.0808 8.77173C9.98183 8.77173 9.87996 8.70727 9.79956 8.57739C9.71993 8.44875 9.66877 8.2662 9.6687 8.06079C9.6687 7.85521 9.71987 7.67194 9.79956 7.54321C9.87995 7.4134 9.98186 7.34888 10.0808 7.34888Z" fill="#0F172A" stroke="#0F172A" stroke-width="0.149851"/>
</svg>
